<svg width="81" height="88" viewBox="0 0 81 88" fill="none" xmlns="http://www.w3.org/2000/svg">
<rect x="58.8696" y="17" width="29.9509" height="68.1336" rx="14.9755" transform="rotate(43.2719 58.8696 17)" fill="#FFB404" stroke="black" stroke-width="4"/>
<ellipse cx="59.0807" cy="33.8746" rx="6.59" ry="4" transform="rotate(7.96528 59.0807 33.8746)" fill="black"/>
<rect x="37.1689" y="40" width="30.9332" height="9" transform="rotate(43.27 37.1689 40)" fill="black"/>
<rect x="29.1689" y="49" width="30.2669" height="9" transform="rotate(43.27 29.1689 49)" fill="black"/>
<path d="M55 2.00003C55 2.00003 52 5.50003 52 13C52 20.5 55 24 55 24" stroke="black" stroke-width="4" stroke-linecap="round"/>
<path d="M71.601 6.10924C71.601 6.10924 67.0068 6.48894 61.7338 11.8223C56.4608 17.1557 56.1334 21.7539 56.1334 21.7539" stroke="black" stroke-width="4" stroke-linecap="round"/>
<path d="M30.4346 10.4867C35.4843 9.94039 40.9694 14.9067 41.8226 22.8024C42.0016 24.4595 41.5856 26.4007 40.7112 28.4926C39.8446 30.5658 38.5884 32.6435 37.2669 34.5166C35.9504 36.3828 34.6007 38.0015 33.5777 39.1552C33.4016 39.3539 33.2339 39.5368 33.0797 39.706C32.9299 39.5883 32.7689 39.4632 32.6006 39.3277C31.4606 38.4102 29.9358 37.1044 28.3896 35.5498C26.8385 33.9903 25.3004 32.2149 24.1067 30.3603C22.904 28.4918 22.123 26.6546 21.9394 24.9547C21.0864 17.0588 25.3844 11.0332 30.4346 10.4867Z" stroke="black" stroke-width="4"/>
<path d="M2.29279 40.7649C2.51821 35.6908 8.25856 31.0219 16.1924 31.3754C17.8574 31.4496 19.7132 32.155 21.6484 33.3364C23.5662 34.5073 25.4295 36.064 27.0806 37.6541C28.7257 39.2383 30.1211 40.8177 31.1065 42.0038C31.2761 42.208 31.4315 42.4015 31.5754 42.5795C31.4363 42.7097 31.2883 42.8499 31.1288 42.9958C30.0491 43.9835 28.5273 45.2927 26.7563 46.5854C24.9796 47.8822 22.9916 49.1334 20.9775 50.0322C18.9483 50.9378 17.0139 51.4312 15.3059 51.3551C7.37189 51.0013 2.06746 45.8396 2.29279 40.7649Z" stroke="black" stroke-width="4"/>
</svg>
