<?xml version="1.0" encoding="UTF-8" standalone="no"?>
<!-- Created with Inkscape (http://www.inkscape.org/) -->

<svg
   width="576.08459"
   height="576.08466"
   viewBox="0 0 152.42238 152.4224"
   version="1.1"
   id="svg1"
   xmlns="http://www.w3.org/2000/svg"
   xmlns:svg="http://www.w3.org/2000/svg">
  <defs
     id="defs1" />
  <g
     id="layer1"
     transform="translate(-56.080472,-56.080467)">
    <g
       id="g12"
       transform="translate(-46.972603,-18.924223)"
       style="display:none">
      <path
         id="path1"
         style="font-variation-settings:'wght' 900;fill:#f9f9f9;stroke:#ffcc00;stroke-width:2.11666;stroke-linecap:round;paint-order:fill markers stroke"
         d="m 182.56946,87.365346 c 0,8.776701 -16.44679,16.344444 -34.16355,15.891624 -11.30484,-0.28894 -26.37169,-0.8119 -32.09005,-15.891624 9.38228,-17.013232 24.03573,-15.828478 32.09005,-15.891627 17.72226,-0.138948 34.16355,7.11492 34.16355,15.891627 z" />
      <path
         id="path2"
         style="font-variation-settings:'wght' 900;fill:#f9f9f9;stroke:#ffcc00;stroke-width:2.11666;stroke-linecap:round;paint-order:fill markers stroke"
         d="m 173.61277,121.17952 c -4.38835,7.60085 -22.41556,5.93131 -37.53232,-3.31922 -9.64581,-5.90265 -22.4326,-13.88897 -19.84498,-29.807577 16.6319,-10.042751 28.72979,-1.689999 35.73661,2.282473 15.4174,8.740797 26.02904,23.243474 21.64069,30.844324 z" />
      <path
         id="path3"
         style="font-variation-settings:'wght' 900;fill:#f9f9f9;stroke:#ffcc00;stroke-width:2.11666;stroke-linecap:round;paint-order:fill markers stroke"
         d="m 148.94896,145.98511 c -7.60085,4.38836 -22.3781,-6.07111 -30.84433,-21.64069 -5.4022,-9.93475 -12.48272,-23.2445 -2.28247,-35.736606 19.42502,-0.381328 25.72572,12.901316 29.80757,19.844986 8.98146,15.27845 10.92008,33.14396 3.31923,37.53231 z" />
      <path
         id="path4"
         style="font-variation-settings:'wght' 900;fill:#f9f9f9;stroke:#ffcc00;stroke-width:2.11666;stroke-linecap:round;paint-order:fill markers stroke"
         d="m 115.18668,155.13548 c -8.77671,0 -16.344451,-16.44679 -15.891631,-34.16355 0.288933,-11.30485 0.811901,-26.371692 15.891631,-32.090048 17.01322,9.38227 15.82846,24.035728 15.89162,32.090048 0.13894,17.72225 -7.11492,34.16355 -15.89162,34.16355 z" />
      <path
         id="path5"
         style="font-variation-settings:'wght' 900;fill:#f9f9f9;stroke:#ffcc00;stroke-width:2.11666;stroke-linecap:round;paint-order:fill markers stroke"
         d="m 81.3725,146.17879 c -7.600854,-4.38835 -5.931315,-22.41556 3.319219,-37.53232 5.902648,-9.645818 13.888973,-22.432602 29.807581,-19.844978 10.04274,16.631898 1.68998,28.729778 -2.28248,35.736608 -8.7408,15.41739 -23.243475,26.02904 -30.84432,21.64069 z" />
      <path
         id="path6"
         style="font-variation-settings:'wght' 900;fill:#f9f9f9;stroke:#ffcc00;stroke-width:2.11666;stroke-linecap:round;paint-order:fill markers stroke"
         d="m 56.566906,121.51498 c -4.388358,-7.60085 6.071111,-22.378103 21.640688,-30.844334 9.934752,-5.402199 23.244506,-12.482717 35.736616,-2.282464 0.38131,19.425018 -12.90133,25.725708 -19.844994,29.807568 -15.27845,8.98145 -33.14396,10.92007 -37.53231,3.31923 z" />
      <path
         id="path7"
         style="font-variation-settings:'wght' 900;fill:#f9f9f9;stroke:#ffcc00;stroke-width:2.11666;stroke-linecap:round;paint-order:fill markers stroke"
         d="m 47.416536,87.752696 c -4e-6,-8.776708 16.446788,-16.34445 34.163553,-15.891632 11.304847,0.288934 26.371691,0.811903 32.090051,15.891636 -9.38229,17.01321 -24.035735,15.82845 -32.090055,15.89161 -17.722251,0.13894 -34.163546,-7.114918 -34.163549,-15.891614 z" />
      <path
         id="path8"
         style="font-variation-settings:'wght' 900;fill:#f9f9f9;stroke:#ffcc00;stroke-width:2.11666;stroke-linecap:round;paint-order:fill markers stroke"
         d="m 56.373226,53.938516 c 4.38835,-7.600854 22.415561,-5.931315 37.53232,3.319219 9.645814,5.902648 22.432604,13.888974 19.844984,29.807586 C 97.118621,97.108048 85.020746,88.755293 78.01392,84.782832 62.59653,76.042032 51.98488,61.539359 56.373226,53.938516 Z" />
      <path
         id="path9"
         style="font-variation-settings:'wght' 900;fill:#f9f9f9;stroke:#ffcc00;stroke-width:2.11666;stroke-linecap:round;paint-order:fill markers stroke"
         d="m 81.037037,29.132922 c 7.600849,-4.388358 22.378103,6.071111 30.844333,21.640688 5.4022,9.93475 12.48272,23.244506 2.28247,35.736618 C 94.738818,86.891531 88.438128,73.608895 84.356269,66.66523 75.374818,51.38678 73.436196,33.521272 81.037037,29.132922 Z" />
      <path
         id="path10"
         style="font-variation-settings:'wght' 900;fill:#f9f9f9;stroke:#ffcc00;stroke-width:2.11666;stroke-linecap:round;paint-order:fill markers stroke"
         d="m 114.79932,19.982553 c 8.77671,-5e-6 16.34445,16.446788 15.89163,34.163552 -0.28893,11.304846 -0.8119,26.371693 -15.89163,32.090054 C 97.786106,76.853866 98.970867,62.200421 98.907706,54.146101 98.768766,36.42385 106.02262,19.982555 114.79932,19.982553 Z" />
      <path
         id="path11"
         style="font-variation-settings:'wght' 900;fill:#f9f9f9;stroke:#ffcc00;stroke-width:2.11666;stroke-linecap:round;paint-order:fill markers stroke"
         d="m 148.6135,28.939242 c 7.60086,4.388351 5.93131,22.415562 -3.31922,37.532319 -5.90265,9.645819 -13.88897,22.432606 -29.80758,19.844987 -10.04273,-16.631911 -1.68998,-28.729786 2.28248,-35.736612 8.7408,-15.41739 23.24347,-26.029042 30.84432,-21.640694 z" />
      <path
         id="path12"
         style="font-variation-settings:'wght' 900;fill:#f9f9f9;stroke:#ffcc00;stroke-width:2.11666;stroke-linecap:round;paint-order:fill markers stroke"
         d="m 173.60304,53.855017 c 4.38837,7.600854 -6.07111,22.378102 -21.64068,30.844332 -9.93476,5.402199 -23.24451,12.482722 -35.73662,2.282473 -0.3813,-19.425022 12.90133,-25.725715 19.84499,-29.807574 15.27845,-8.981451 33.14396,-10.920076 37.53231,-3.319231 z" />
    </g>
    <g
       id="g21"
       style="display:inline"
       transform="translate(-21.910318,-50.050802)">
      <ellipse
         style="font-variation-settings:'wght' 900;fill:#f9f9f9;stroke:#000000;stroke-width:2.11667;stroke-linecap:round;paint-order:fill markers stroke"
         id="path14"
         cx="192.66774"
         cy="181.97261"
         rx="36.687103"
         ry="25.023956" />
      <ellipse
         style="font-variation-settings:'wght' 900;fill:#f9f9f9;stroke:#000000;stroke-width:2.11667;stroke-linecap:round;paint-order:fill markers stroke"
         id="ellipse15"
         cx="220.80823"
         cy="-154.57185"
         rx="36.687103"
         ry="25.023956"
         transform="rotate(90)" />
      <ellipse
         style="font-variation-settings:'wght' 900;fill:#f9f9f9;stroke:#000000;stroke-width:2.11667;stroke-linecap:round;paint-order:fill markers stroke"
         id="ellipse16"
         cx="-115.73623"
         cy="-182.71234"
         rx="36.687103"
         ry="25.023956"
         transform="scale(-1)" />
      <ellipse
         style="font-variation-settings:'wght' 900;fill:#f9f9f9;stroke:#000000;stroke-width:2.11667;stroke-linecap:round;paint-order:fill markers stroke"
         id="ellipse17"
         cx="-143.87671"
         cy="153.83212"
         rx="36.687103"
         ry="25.023956"
         transform="rotate(-90)" />
      <ellipse
         style="font-variation-settings:'wght' 900;fill:#f9f9f9;stroke:#000000;stroke-width:2.11667;stroke-linecap:round;paint-order:fill markers stroke"
         id="ellipse18"
         cx="276.43863"
         cy="19.528469"
         rx="36.687103"
         ry="25.023956"
         transform="rotate(45)" />
      <ellipse
         style="font-variation-settings:'wght' 900;fill:#f9f9f9;stroke:#000000;stroke-width:2.11667;stroke-linecap:round;paint-order:fill markers stroke"
         id="ellipse19"
         cx="58.364086"
         cy="-238.34273"
         rx="36.687103"
         ry="25.023956"
         transform="rotate(135)" />
      <ellipse
         style="font-variation-settings:'wght' 900;fill:#f9f9f9;stroke:#000000;stroke-width:2.11667;stroke-linecap:round;paint-order:fill markers stroke"
         id="ellipse20"
         cx="-199.50711"
         cy="-20.2682"
         rx="36.687103"
         ry="25.023956"
         transform="rotate(-135)" />
      <ellipse
         style="font-variation-settings:'wght' 900;fill:#f9f9f9;stroke:#000000;stroke-width:2.11667;stroke-linecap:round;paint-order:fill markers stroke"
         id="ellipse21"
         cx="18.567432"
         cy="237.603"
         rx="36.687103"
         ry="25.023956"
         transform="rotate(-45)" />
      <circle
         style="font-variation-settings:'wght' 900;fill:#ffcc00;stroke:#ffcc00;stroke-width:2.11667;stroke-linecap:round;paint-order:fill markers stroke"
         id="path13"
         cy="181.97261"
         cx="154.78767"
         r="20.461683" />
    </g>
    <g
       id="g40"
       style="display:none">
      <path
         id="circle29"
         style="font-variation-settings:'wght' 900;fill:#ff0000;stroke:none;stroke-width:2.11667;stroke-linecap:round;paint-order:fill markers stroke"
         d="m 222.42962,132.29167 c 0,14.78008 -48.59618,19.96185 -63.37626,19.96185 -14.78008,0 -26.76169,-5.18177 -26.76169,-19.96185 0,-14.78007 11.98162,-19.96184 26.76169,-19.96184 14.78007,0 63.37626,5.18177 63.37626,19.96184 z" />
      <path
         id="path30"
         style="font-variation-settings:'wght' 900;fill:#ff0000;stroke:none;stroke-width:2.11667;stroke-linecap:round;paint-order:fill markers stroke"
         d="m 210.69647,177.12651 c -7.39004,12.79993 -52.06645,-7.01062 -64.86637,-14.40066 -12.79993,-7.39004 -20.58542,-17.86839 -13.19538,-30.66831 7.39003,-12.79992 20.35731,-11.29666 33.15722,-3.90662 12.79992,7.39003 52.29457,36.17567 44.90453,48.97559 z" />
      <path
         id="path31"
         style="font-variation-settings:'wght' 900;fill:#ff0000;stroke:none;stroke-width:2.11667;stroke-linecap:round;paint-order:fill markers stroke"
         d="m 178.11785,210.08805 c -12.79993,7.39004 -41.58556,-32.1046 -48.9756,-44.90453 -7.39004,-12.79992 -8.8933,-25.76719 3.90662,-33.15722 12.79992,-7.39004 23.27828,0.39546 30.66831,13.19538 7.39004,12.79991 27.20059,57.47633 14.40067,64.86637 z" />
      <path
         id="path32"
         style="font-variation-settings:'wght' 900;fill:#ff0000;stroke:none;stroke-width:2.11667;stroke-linecap:round;paint-order:fill markers stroke"
         d="m 133.42316,222.34427 c -14.78008,-1e-5 -19.96185,-48.59618 -19.96184,-63.37627 -1e-5,-14.78007 5.18177,-26.76169 19.96184,-26.76168 14.78007,0 19.96185,11.98162 19.96184,26.76169 1e-5,14.78006 -5.18176,63.37625 -19.96184,63.37626 z" />
      <path
         id="path33"
         style="font-variation-settings:'wght' 900;fill:#ff0000;stroke:none;stroke-width:2.11667;stroke-linecap:round;paint-order:fill markers stroke"
         d="m 88.588318,210.61112 c -12.79992,-7.39005 7.010621,-52.06645 14.400672,-64.86638 7.39003,-12.79992 17.86839,-20.58542 30.6683,-13.19537 12.79992,7.39003 11.29666,20.35731 3.90662,33.15722 -7.39002,12.79991 -36.17566,52.29456 -48.975592,44.90453 z" />
      <path
         id="path34"
         style="font-variation-settings:'wght' 900;fill:#ff0000;stroke:none;stroke-width:2.11667;stroke-linecap:round;paint-order:fill markers stroke"
         d="m 55.62678,178.03249 c -7.39003,-12.79993 32.104601,-41.58555 44.90454,-48.97559 12.79991,-7.39004 25.76719,-8.89331 33.15721,3.90662 7.39004,12.79991 -0.39546,23.27828 -13.19538,30.66831 -12.7999,7.39003 -57.476318,27.20058 -64.86637,14.40066 z" />
      <path
         id="path35"
         style="font-variation-settings:'wght' 900;fill:#ff0000;stroke:none;stroke-width:2.11667;stroke-linecap:round;paint-order:fill markers stroke"
         d="m 43.370566,133.3378 c 1.1e-5,-14.78008 48.596175,-19.96184 63.376264,-19.96183 14.78007,-10e-6 26.7617,5.18176 26.76168,19.96183 1e-5,14.78007 -11.98162,19.96186 -26.76169,19.96185 -14.780053,0 -63.376241,-5.18177 -63.376254,-19.96185 z" />
      <path
         id="path36"
         style="font-variation-settings:'wght' 900;fill:#ff0000;stroke:none;stroke-width:2.11667;stroke-linecap:round;paint-order:fill markers stroke"
         d="m 55.103718,88.502959 c 7.39005,-12.799919 52.066442,7.010627 64.866372,14.400681 12.79992,7.39003 20.58543,17.86838 13.19538,30.66829 -7.39003,12.79992 -20.35732,11.29667 -33.15723,3.90663 C 87.208338,130.08853 47.71369,101.30289 55.103718,88.502959 Z" />
      <path
         id="path37"
         style="font-variation-settings:'wght' 900;fill:#ff0000;stroke:none;stroke-width:2.11667;stroke-linecap:round;paint-order:fill markers stroke"
         d="m 87.682347,55.541424 c 12.799933,-7.39003 41.585543,32.104602 48.975583,44.904546 7.39004,12.79991 8.89332,25.76718 -3.90661,33.1572 C 119.95141,140.99321 109.47303,133.20772 102.083,120.4078 94.692978,107.60789 74.882429,62.931475 87.682347,55.541424 Z" />
      <path
         id="path38"
         style="font-variation-settings:'wght' 900;fill:#ff0000;stroke:none;stroke-width:2.11667;stroke-linecap:round;paint-order:fill markers stroke"
         d="m 132.37703,43.285212 c 14.78009,1.2e-5 19.96184,48.596172 19.96183,63.376268 10e-6,14.78007 -5.18175,26.76169 -19.96182,26.76167 -14.78007,1e-5 -19.96187,-11.98161 -19.96186,-26.76168 10e-6,-14.780061 5.18177,-63.376246 19.96185,-63.376258 z" />
      <path
         id="path39"
         style="font-variation-settings:'wght' 900;fill:#ff0000;stroke:none;stroke-width:2.11667;stroke-linecap:round;paint-order:fill markers stroke"
         d="m 177.21187,55.018362 c 12.79993,7.390055 -7.01062,52.066438 -14.40068,64.866378 -7.39003,12.79992 -17.86837,20.58542 -30.66828,13.19537 -12.79992,-7.39003 -11.29668,-20.35731 -3.90664,-33.157224 7.39004,-12.799903 36.17567,-52.294554 48.9756,-44.904524 z" />
      <path
         id="path40"
         style="font-variation-settings:'wght' 900;fill:#ff0000;stroke:none;stroke-width:2.11667;stroke-linecap:round;paint-order:fill markers stroke"
         d="m 210.69647,88.502958 c 7.39003,12.799942 -32.1046,41.585552 -44.90455,48.975592 -12.79991,7.39004 -25.76717,8.89331 -33.15719,-3.90662 -7.39004,-12.79991 0.39544,-23.27828 13.19536,-30.66831 12.79991,-7.390025 57.47633,-27.200581 64.86638,-14.400662 z" />
    </g>
  </g>
</svg>
